<svg id="Layer_1" data-name="Layer 1" xmlns="http://www.w3.org/2000/svg" viewBox="0 0 1080 1080"><defs><style>.cls-1{fill:#ccc;}</style></defs><title>Logo</title><path d="M940,553l0-17.33c-107.37,0-85.17.07-93.15-45.22,33.22-21.62,60-32.38,141.83-54.35l-6.88-25.61c-164.66,44.11-146,28.89-163.37-5.4C832.83,391.2,850.08,379.51,889,357l-8.67-15c-38.8,22.4-56.32,32.92-76.06,38.15C784.72,349,755.09,354.31,876.36,233l-18.77-18.74C735.75,336.05,750.45,310.5,708.27,283.69c5.5-19.18,14.6-37.93,37-76.78l-15-8.66c-51.65,89.47-39.71,71.35-80.86,56.23-1.59-37.45,2.93-66.82,24.05-145.75l-25.62-6.85C604.1,265.1,603.83,238.31,558.89,236c-5.6-20.52-7.31-41-7.31-88.77H534.23c0,47.69.39,67.77-6.1,88.74-37.87,1.78-48.29,31.14-93.43-137.41l-25.64,6.87c21.88,81.67,29.89,108.34,24.78,150a308.51,308.51,0,0,0-30.19,13.33c-13.91-14.37-25.61-31.62-48.1-70.58l-15,8.68c22.4,38.8,32.91,56.31,38.14,76-31.23,19.66-25.9,49.21-147.15-72l-18.76,18.77c142,142,98.41,173.32-7.31,112.3l-8.66,15c38.91,22.46,56.78,32.37,71.18,46.91-16.16,31.58,2.88,53.7-160.69,9.9l-6.86,25.62C179,460.5,207.08,467.22,239,490.23a310.54,310.54,0,0,0-4.42,38.14c-20.51,5.62-41,7.33-88.77,7.33V553c47.69,0,67.76-.38,88.73,6.11,1.81,38.07,31.1,48.28-137.4,93.44L104,678.21c164.66-44.12,146-28.85,163.37,5.41-14.38,13.92-31.62,25.61-70.59,48.11l8.67,15c38.81-22.4,56.33-32.92,76.05-38.14,19.67,31.23,49.2,25.9-72,147.16l18.77,18.75C349.32,753.42,335.13,778.08,377.54,805c-5.5,19.18-14.59,37.93-37,76.78l15,8.67c22.47-38.92,32.37-56.78,46.93-71.2,31.52,16.14,53.71-2.92,9.89,160.71L438,986.85c21.07-78.59,27.79-106.64,50.79-138.57,41.15,7.29,45.47-13.43,45.49,93.22h17.33c0-107.4-.05-85.18,45.22-93.16,21.62,33.21,32.38,59.95,54.32,141.83l25.64-6.88c-21.89-81.67-29.89-108.35-24.78-150,33.62-12.71,27.25-31.09,78.3,57.27l15-8.68c-51.67-89.5-42.16-69.59-6.82-98.56,34.12,17.6,57.13,35.86,115.85,94.56l18.75-18.77c-121.13-121.11-96.45-106.91-69.49-149.32,19.18,5.5,37.94,14.6,76.8,37l8.65-15c-38.92-22.47-56.78-32.37-71.19-46.92,16.14-31.51-3-53.71,160.71-9.89l6.85-25.62c-78.59-21.07-106.65-27.79-138.56-50.79C854.11,557.32,833.39,553.06,940,553Z"/><path d="M697.94,117.71c-4.2,16.19-26.46,24.43-49.73,18.4s-38.74-24.05-34.55-40.24,26.46-24.42,49.74-18.39S702.13,101.52,697.94,117.71Z"/><path d="M896.84,253.67c-10.82,12.76-34.44,10.52-52.79-5s-24.46-38.47-13.67-51.24,34.45-10.52,52.8,5S907.64,240.9,896.84,253.67Z"/><path d="M990,465.83c-16.49,2.91-33.22-13.9-37.42-37.58s5.76-45.22,22.22-48.16S1008,394,1012.18,417.67,1006.42,462.91,990,465.83Z"/><path d="M964.85,703c-15.78-5.6-22-28.48-14-51.15s27.33-36.49,43.09-30.91,22,28.49,14,51.15S980.6,708.57,964.85,703Z"/><path d="M832.3,899.36c-11.65-12-7.1-35.31,10.17-52.05s40.68-20.55,52.33-8.55,7.08,35.31-10.18,52S843.93,911.36,832.3,899.36Z"/><path d="M617.59,989.86c-3.32-16.41,13.08-33.56,36.65-38.32s45.36,4.67,48.68,21.06-13.11,33.54-36.67,38.31S620.9,1006.25,617.59,989.86Z"/><path d="M380.24,970.29c3.58-16.36,25.5-25.42,49-20.26s39.61,22.57,36,38.91-25.53,25.39-49,20.25S376.65,986.62,380.24,970.29Z"/><path d="M185.64,844.92c9-14.13,32.68-15.11,53-2.19s29.43,34.82,20.45,48.93-32.69,15.06-53,2.17S176.65,859,185.64,844.92Z"/><path d="M83.57,627.26c15.63-6,35.25,7.33,43.87,29.79s2.91,45.49-12.69,51.48-35.25-7.36-43.87-29.8S68,633.23,83.57,627.26Z"/><path d="M112.37,386.77c16.23,4.09,24.61,26.28,18.74,49.61s-23.79,38.88-40,34.81-24.59-26.31-18.74-49.61S96.15,382.68,112.37,386.77Z"/><path d="M251.05,188.24c12.06,11.62,8.33,35-8.36,52.38s-39.95,21.94-52,10.35-8.28-35.05,8.38-52.38S239,176.65,251.05,188.24Z"/><path d="M463.07,87.27c4.65,16.08-10.28,34.5-33.39,41.19s-45.57-.93-50.24-17,10.34-34.5,33.41-41.2S458.42,71.2,463.07,87.27Z"/><path d="M571.67,145.62c.48,11.41-12.4,21.2-28.8,21.9s-30.06-8-30.55-19.4,12.44-21.19,28.82-21.9S571.19,134.22,571.67,145.62Z"/><path d="M764.58,217.4c-5.06,10.24-21.05,12.66-35.77,5.41s-22.55-21.42-17.52-31.67,21.07-12.64,35.78-5.4S769.62,207.16,764.58,217.4Z"/><path d="M895.59,377.08c-9.48,6.37-24.56.51-33.72-13.11s-8.9-29.8.57-36.18,24.58-.48,33.73,13.12S905.06,370.71,895.59,377.08Z"/><path d="M937.28,574.37c-11.42-.22-20.42-13.67-20.11-30.08S927,514.78,938.39,515s20.4,13.71,20.11,30.09S948.69,574.59,937.28,574.37Z"/><path d="M865.33,761.78c-9.42-6.45-9.57-22.63-.31-36.18s24.4-19.29,33.83-12.85,9.53,22.65.29,36.19S874.75,768.22,865.33,761.78Z"/><path d="M710.21,899.53c-6.3-9.53-.33-24.57,13.35-33.64s29.86-8.68,36.17.84.3,24.57-13.35,33.63S716.52,909,710.21,899.53Z"/><path d="M513.61,943.8C512,932.49,523.78,921.43,540,919.08s30.7,4.89,32.35,16.19S562.16,957.62,546,960,515.24,955.09,513.61,943.8Z"/><path d="M323.73,873.29c5.32-10.12,21.38-12.13,35.91-4.49s22,22,16.66,32.11-21.39,12.08-35.9,4.47S318.43,883.38,323.73,873.29Z"/><path d="M183.31,718.91c8.38-7.79,24.2-4.38,35.38,7.65s13.46,28,5.1,35.81-24.19,4.32-35.36-7.66S175,726.68,183.31,718.91Z"/><path d="M144.53,514c11.44-.23,21,12.85,21.31,29.27s-8.63,29.87-20.05,30.1-20.93-12.88-21.28-29.26S133.14,514.25,144.53,514Z"/><path d="M212.67,321.81c10.74,3.89,14.91,19.53,9.33,35s-18.79,24.76-29.54,20.87-14.88-19.55-9.33-35S201.94,317.92,212.67,321.81Z"/><path d="M370.45,186.37c6.51,9.4.85,24.56-12.65,33.91s-29.66,9.29-36.17-.11-.8-24.56,12.66-33.89S364,177,370.45,186.37Z"/><rect class="cls-1" x="717.01" y="492.76" width="44.8" height="187.23"/><rect class="cls-1" x="564.8" y="580.28" width="44.8" height="99.71"/><rect class="cls-1" x="488.7" y="614.11" width="44.8" height="65.88"/><rect class="cls-1" x="412.6" y="637.22" width="44.8" height="42.78"/><rect class="cls-1" x="336.5" y="651.39" width="44.8" height="28.61"/><rect class="cls-1" x="640.91" y="540.88" width="44.8" height="139.11"/><path class="cls-1" d="M322.56,623.49c-2.54,0-4,0-4.37-.06l.43-11.54c.56,0,56.1,1.76,134.88-21.43,72.63-21.38,180.47-69,281.75-174.19l8.32,8c-103.2,107.23-213.2,155.66-287.31,177.41C387.63,621.83,337.32,623.49,322.56,623.49Z"/><polygon class="cls-1" points="761.31 400 702.83 412.16 749.15 458.49 761.31 400"/></svg>